<svg width="193" height="196" viewBox="0 0 193 196" fill="none" xmlns="http://www.w3.org/2000/svg">
<path d="M91.0535 10.6568C90.1365 13.8127 85.7274 12.5385 84.8104 15.6943C83.8935 18.8501 88.2786 20.1472 87.4334 23.2346C86.5881 26.3221 82.1073 25.1162 81.1903 28.2721C80.2734 31.4279 84.6346 32.7477 83.8133 35.8124C82.9919 38.8771 78.4872 37.694 77.5702 40.8499" stroke="#F7CC94" stroke-width="4.04291" stroke-miterlimit="10"/>
<path d="M116.122 30.9185C118.494 30.9754 120.462 29.0993 120.519 26.7282C120.576 24.357 118.7 22.3886 116.329 22.3316C113.958 22.2747 111.989 24.1507 111.932 26.5219C111.875 28.8931 113.751 30.8615 116.122 30.9185Z" fill="#F99494"/>
<path d="M49.349 55.2603C51.7202 55.3172 53.6886 53.4411 53.7455 51.07C53.8025 48.6988 51.9264 46.7304 49.5552 46.6734C47.184 46.6165 45.2156 48.4925 45.1587 50.8637C45.1017 53.2349 46.9778 55.2033 49.349 55.2603Z" fill="#F4E692"/>
<path d="M108.833 92.6138C111.205 92.6707 113.173 90.7947 113.23 88.4235C113.287 86.0523 111.411 84.0839 109.04 84.0269C106.668 83.97 104.7 85.8461 104.643 88.2173C104.586 90.5885 106.462 92.5568 108.833 92.6138Z" fill="#C1F291"/>
<path d="M104.934 68.612C105.215 67.526 107.508 58.7501 114.527 56.6203C114.84 56.5253 120.826 54.8552 123.107 57.947C123.612 58.6156 123.912 59.4165 123.971 60.2524C124.03 61.0883 123.844 61.9232 123.438 62.6558C122.365 63.7059 120.927 64.2979 119.427 64.3068C117.926 64.3157 116.481 63.7407 115.396 62.7035C113.012 60.1558 115.043 55.0233 117.529 52.194C119.477 50.1479 122.051 48.8086 124.845 48.3874C126.724 48.0422 128.653 48.0795 130.517 48.4971" stroke="#F7CC94" stroke-width="4.04291" stroke-miterlimit="10"/>
<path d="M73.4085 61.0985C74.2466 61.9778 80.9448 69.2765 78.7131 76.8894C78.7044 77.2527 76.6334 83.6799 72.4626 83.9763C71.5517 84.0449 70.6406 83.8461 69.8411 83.4042C69.0417 82.9623 68.3886 82.2967 67.962 81.4889C67.6833 79.922 68.0103 78.3077 68.8767 76.9727C69.7431 75.6376 71.0843 74.6816 72.6289 74.298C76.3131 73.6264 79.9277 78.6039 80.9924 82.4297C81.7303 85.4039 81.4454 88.54 80.1838 91.3326C79.3868 93.2524 78.2223 94.9981 76.7558 96.4714" stroke="#8FC6EF" stroke-width="4.04291" stroke-miterlimit="10"/>
<path d="M16.5321 70.6289C19.0442 71.978 17.1067 75.5995 19.6841 76.9832C22.2614 78.3669 24.1989 74.7454 26.7102 76.1275C29.2215 77.5097 27.2848 81.0982 29.8622 82.4819C32.4395 83.8656 34.377 80.2441 36.9214 81.627C39.4657 83.0099 37.4952 86.6306 40.0725 88.0143" stroke="#F99494" stroke-width="4.04291" stroke-miterlimit="10"/>
<path fill-rule="evenodd" clip-rule="evenodd" d="M52.5399 125.311L179.036 100.017L183.252 121.1C175.61 122.628 170.655 130.061 172.182 137.702C173.71 145.343 181.143 150.299 188.784 148.771L193 169.854L66.504 195.147L62.2885 174.065C69.9296 172.537 74.8853 165.104 73.3574 157.463C71.8296 149.822 64.3967 144.866 56.7556 146.394L52.5399 125.311Z" fill="#FFE967"/>
<path d="M103.883 161.126C103.046 161.294 102.259 161.393 101.522 161.423C100.795 161.452 100.14 161.44 99.5556 161.387C98.9717 161.333 98.4694 161.264 98.0489 161.178L96.968 157.604C97.752 157.808 98.6339 157.945 99.6139 158.015C100.594 158.084 101.625 158.011 102.707 157.794C103.677 157.6 104.417 157.346 104.927 157.032C105.448 156.715 105.788 156.345 105.947 155.92C106.104 155.485 106.128 154.992 106.018 154.441L105.972 154.211C105.86 153.65 105.655 153.213 105.359 152.901C105.063 152.588 104.643 152.396 104.098 152.325C103.553 152.253 102.849 152.293 101.988 152.444L98.5882 153.044L97.9606 149.905L101.326 149.137C102.159 148.949 102.808 148.713 103.271 148.429C103.732 148.135 104.036 147.793 104.181 147.403C104.336 147.011 104.363 146.565 104.263 146.065L104.23 145.897C104.07 145.1 103.686 144.556 103.075 144.264C102.475 143.97 101.516 143.955 100.199 144.218C99.1174 144.435 98.1231 144.771 97.2166 145.229C96.3182 145.674 95.5485 146.125 94.9074 146.582L94.5768 143.177C95.1812 142.695 95.9478 142.228 96.8768 141.777C97.8058 141.326 98.9287 140.969 100.246 140.706C102.583 140.238 104.408 140.335 105.718 140.997C107.029 141.658 107.847 142.801 108.171 144.424L108.232 144.73C108.392 145.526 108.397 146.242 108.248 146.877C108.099 147.512 107.79 148.067 107.323 148.543C106.853 149.008 106.198 149.394 105.356 149.7L105.47 150.267L105.2 149.875C106.697 149.82 107.828 150.087 108.593 150.677C109.359 151.267 109.873 152.216 110.134 153.523L110.226 153.982C110.577 155.738 110.241 157.243 109.218 158.499C108.203 159.742 106.425 160.618 103.883 161.126ZM120.685 157.799C118.144 158.307 116.083 158.008 114.502 156.901C112.93 155.782 111.881 153.906 111.354 151.272L110.503 147.015C109.979 144.392 110.227 142.261 111.248 140.624C112.269 138.986 114.055 137.912 116.607 137.402C119.159 136.892 121.221 137.196 122.793 138.315C124.376 139.432 125.429 141.302 125.954 143.926L126.805 148.183C127.331 150.816 127.079 152.953 126.048 154.592C125.025 156.22 123.238 157.288 120.685 157.799ZM120.021 154.476C121.267 154.227 122.103 153.656 122.529 152.764C122.964 151.859 123.034 150.667 122.738 149.187L121.816 144.578C121.518 143.087 120.996 142.013 120.248 141.356C119.509 140.686 118.517 140.476 117.272 140.725C116.016 140.976 115.176 141.553 114.751 142.455C114.324 143.347 114.26 144.539 114.558 146.029L115.48 150.638C115.776 152.118 116.298 153.192 117.047 153.86C117.795 154.517 118.786 154.723 120.021 154.476ZM133.074 154.891L141.258 132.903L144.642 132.226L136.489 154.209L133.074 154.891ZM147.113 152.546C145.643 152.84 144.441 152.672 143.508 152.041C142.585 151.408 141.978 150.361 141.686 148.902L141.444 147.692C141.156 146.252 141.322 145.062 141.941 144.121C142.559 143.18 143.598 142.563 145.058 142.271C146.518 141.98 147.713 142.144 148.644 142.765C149.586 143.383 150.202 144.423 150.494 145.882L150.736 147.092C151.026 148.542 150.857 149.743 150.23 150.697C149.612 151.638 148.573 152.254 147.113 152.546ZM146.635 150.157C147.186 150.047 147.566 149.796 147.774 149.404C147.981 149.002 148.016 148.464 147.882 147.79L147.594 146.351C147.461 145.687 147.218 145.216 146.865 144.936C146.52 144.644 146.077 144.552 145.536 144.66C144.985 144.77 144.601 145.028 144.384 145.432C144.176 145.824 144.138 146.352 144.271 147.015L144.559 148.455C144.694 149.128 144.939 149.61 145.294 149.9C145.647 150.18 146.094 150.266 146.635 150.157ZM132.597 144.859C131.127 145.153 129.926 144.989 128.995 144.369C128.062 143.738 127.45 142.692 127.158 141.232L126.916 140.023C126.626 138.573 126.792 137.383 127.412 136.452C128.031 135.511 129.075 134.893 130.545 134.599C132.005 134.307 133.202 134.477 134.135 135.108C135.076 135.726 135.691 136.761 135.981 138.21L136.223 139.42C136.513 140.869 136.343 142.066 135.715 143.009C135.096 143.95 134.057 144.567 132.597 144.859ZM132.122 142.485C132.663 142.377 133.038 142.127 133.246 141.735C133.463 141.331 133.505 140.797 133.372 140.133L133.081 138.679C132.948 138.015 132.704 137.538 132.349 137.248C132.004 136.956 131.561 136.865 131.02 136.973C130.469 137.083 130.085 137.34 129.869 137.744C129.662 138.147 129.626 138.679 129.758 139.343L130.049 140.798C130.182 141.461 130.426 141.938 130.781 142.228C131.134 142.508 131.581 142.593 132.122 142.485Z" fill="#2B2B2B"/>
</svg>
