<svg width="450" height="102" viewBox="0 0 450 102" fill="none" xmlns="http://www.w3.org/2000/svg">
<g clip-path="url(#clip0_453_20323)">
<path d="M0 8.24023H30.0831C46.4569 8.24023 54.8658 15.6334 54.8658 26.6025C54.8658 34.8329 49.2217 40.5232 41.2711 42.2119V42.9072C43.5082 42.9749 45.7097 43.4802 47.7489 44.3939C49.7881 45.3077 51.6247 46.6118 53.1532 48.2314C54.6816 49.8509 55.8716 51.7539 56.6548 53.8307C57.438 55.9076 57.7988 58.1174 57.7166 60.3329C57.7166 71.9548 48.6057 80.4832 32.4324 80.4832H0V8.24023ZM27.2897 38.0399C33.1344 38.0399 37.3174 34.9464 37.3174 29.7528C37.3174 24.8713 33.5355 21.7778 27.4472 21.7778H17.1903V38.0825L27.2897 38.0399ZM28.407 66.676C36.2143 66.676 39.7813 63.5257 39.7813 58.3888C39.7813 52.7127 35.5553 49.0658 28.7079 49.1084H17.1903V66.7186L28.407 66.676Z" fill="white"/>
<path d="M81.654 80.4832H64.6356V8.24023H81.654V80.4832Z" fill="white"/>
<path d="M99.6324 0.180664C102.497 7.10554 104.689 9.17733 112.31 11.7316C104.689 14.3 102.454 16.3434 99.6324 23.2967C96.9106 16.3434 94.6758 14.3 87.0977 11.7316C94.6758 9.17733 96.9106 7.10554 99.6324 0.180664Z" fill="white"/>
<path d="M108.113 26.3047H91.0944V80.4833H108.113V26.3047Z" fill="white"/>
<path d="M134.572 80.4832H117.539V26.3046H133.655V36.2378H134.271C136.735 29.7103 142.866 25.666 150.888 25.666C162.348 25.666 169.869 33.7403 169.826 46.0149V80.4832H152.894V49.151C152.894 43.0633 149.57 39.4306 143.94 39.3739C138.311 39.3171 134.572 43.1627 134.572 49.449V80.4832Z" fill="white"/>
<path d="M178.55 84.5708H195.068C195.769 88.5157 199.551 90.2469 204.837 90.1617C210.983 90.1617 215.209 87.6217 215.209 80.5833V71.0048H214.607C212.544 75.9005 207.258 79.7318 199.093 79.7886C187.017 79.7886 177.147 71.5582 177.147 53.2385C177.147 34.2802 187.461 25.61 198.993 25.61C202.3 25.4613 205.573 26.3383 208.354 28.1187C211.134 29.8992 213.285 32.4946 214.507 35.5432H215.008V26.3053H231.941V80.7819C231.941 94.5465 220.753 101.94 204.436 101.94C188.721 101.94 179.31 94.9013 178.55 84.5708ZM204.852 67.4146C211.456 67.4146 215.281 62.1784 215.223 53.2243C215.166 44.2702 211.441 38.7786 204.852 38.7786C198.262 38.7786 194.58 44.4547 194.58 53.2385C194.58 62.0223 198.248 67.4146 204.852 67.4146Z" fill="white"/>
<path d="M252.917 8.24023H314.258V22.1184H292.097V80.4832H275.078V22.1184H252.917V8.24023Z" fill="white"/>
<path d="M331.592 48.4274C335.574 48.172 342.379 47.9308 344.685 47.8314V43.4608C344.685 39.672 341.82 37.5292 337.236 37.586C332.652 37.6428 329.83 39.5301 329.171 43.0635H313.413C314.158 33.485 322.323 25.6094 337.68 25.6094C351.175 25.6094 361.704 31.9383 361.761 43.6595V80.5543H345.702V72.9057H345.287C342.322 78.3832 337.035 81.4199 329.386 81.4199C318.9 81.4199 311.293 76.0844 311.35 65.3565C311.293 53.394 320.719 49.1085 331.592 48.4274ZM334.457 70.2805C340.187 70.2805 344.785 66.5343 344.728 61.1987V57.7363C342.665 57.7363 336.921 58.0768 334.357 58.3323C330.059 58.7863 327.352 61.1703 327.409 64.7179C327.466 68.2655 330.417 70.3089 334.514 70.3089L334.457 70.2805Z" fill="white"/>
<path d="M387.718 80.4832H370.643V8.24023H387.718V80.4832Z" fill="white"/>
<path d="M397.101 8.24023H414.12V45.9581H414.822L430.58 26.3045H449.919L430.293 49.8463L450.75 80.4832H431.138L417.701 59.7795L414.12 64.0366V80.4832H397.101V8.24023Z" fill="white"/>
</g>
<defs>
<clipPath id="clip0_453_20323">
<rect width="450" height="101.759" fill="white" transform="translate(0 0.180664)"/>
</clipPath>
</defs>
</svg>
