<svg width="368" height="144" viewBox="0 0 368 144" fill="none" xmlns="http://www.w3.org/2000/svg">
<path d="M207.707 100.935H167.059V103.814H208.324V111.696H155.681V93.8059H196.329V90.8584H155.544V82.9756H207.707V100.935ZM211.272 123.555H152.048V114.507H211.272V123.555ZM167.265 132.329H208.53V141.514H155.475V126.297H167.265V132.329Z" fill="white"/>
<path d="M147.941 115.604H141.086V141.514H129.502V82.9756H141.086V104.362H147.941V115.604ZM111.611 128.285C114.445 128.285 117.232 128.056 119.974 127.599C122.762 127.142 125.024 126.502 126.76 125.68V136.03C125.069 136.899 122.716 137.561 119.7 138.018C116.729 138.521 113.759 138.772 110.789 138.772H88.1V84.3465H122.167V94.8341H99.8899V128.285H111.611Z" fill="white"/>
<path d="M29.1373 119.168H3.70666V84.3467H29.0002V95.1084H15.1539V108.475H29.1373V119.168ZM57.6526 119.168H31.5364V84.3467H56.9671V95.1084H42.9837V108.475H57.6526V119.168ZM60.1888 128.696V139.458H0.964813V128.696H24.8189V121.499H36.4032V128.696H60.1888Z" fill="white"/>
<path d="M275.522 62.5756H263.938V4.03711H275.522V62.5756ZM239.055 4.44839C242.666 4.44839 245.864 5.2481 248.652 6.84751C251.485 8.40122 253.701 10.6176 255.301 13.4965C256.9 16.3754 257.7 19.6885 257.7 23.4357C257.7 27.1829 256.9 30.496 255.301 33.3749C253.701 36.2539 251.485 38.493 248.652 40.0924C245.864 41.6462 242.666 42.423 239.055 42.423C235.445 42.423 232.224 41.6462 229.39 40.0924C226.557 38.493 224.341 36.2539 222.741 33.3749C221.142 30.496 220.342 27.1829 220.342 23.4357C220.342 19.6885 221.142 16.3754 222.741 13.4965C224.341 10.6176 226.557 8.40122 229.39 6.84751C232.224 5.2481 235.445 4.44839 239.055 4.44839ZM239.055 14.7989C236.771 14.7989 234.943 15.6214 233.572 17.2665C232.201 18.866 231.515 20.9223 231.515 23.4357C231.515 25.9948 232.201 28.074 233.572 29.6734C234.943 31.2728 236.771 32.0725 239.055 32.0725C241.34 32.0725 243.168 31.2728 244.539 29.6734C245.91 28.0283 246.595 25.9491 246.595 23.4357C246.595 20.9223 245.91 18.866 244.539 17.2665C243.168 15.6214 241.34 14.7989 239.055 14.7989ZM260.579 57.3661C258.842 58.143 256.558 58.737 253.724 59.1483C250.891 59.6053 247.966 59.8338 244.95 59.8338H218.766V49.0035H245.43C248.355 49.0035 251.165 48.8207 253.861 48.4551C256.603 48.0438 258.842 47.4497 260.579 46.6729V57.3661Z" fill="white"/>
<path d="M366.09 91.1846V90.054H364.96H359.236V82.2051V81.0744H358.105H346.521H345.39V82.2051V103.568L345.001 103.322L329.847 93.7201C330.933 90.3381 331.474 86.8181 331.474 83.1647V82.0986L330.41 82.036L318.757 81.3506L317.574 81.281L317.56 82.4658C317.516 86.1765 316.854 89.5007 315.594 92.4548C314.332 95.4151 312.607 97.774 310.433 99.5648C308.322 101.295 305.854 102.333 302.997 102.674L302 102.793V103.797V114.148V115.341L303.192 115.277C307.56 115.039 311.611 113.898 315.33 111.848C318.727 109.975 321.646 107.521 324.083 104.494L337.879 113.584L338.794 114.187L339.425 113.291L345.32 104.928L345.39 104.829V114.422V115.321C341.59 114.511 337.209 114.114 332.263 114.114C324.186 114.114 317.616 115.172 312.62 117.36C310.087 118.447 308.104 119.9 306.756 121.761C305.401 123.633 304.742 125.843 304.742 128.337C304.742 130.831 305.401 133.04 306.756 134.912C308.104 136.773 310.087 138.227 312.62 139.313C317.616 141.501 324.186 142.56 332.263 142.56C340.34 142.56 346.91 141.501 351.906 139.313C354.439 138.227 356.422 136.773 357.77 134.912C359.125 133.04 359.784 130.831 359.784 128.337C359.784 125.843 359.125 123.633 357.77 121.761C356.422 119.9 354.439 118.447 351.906 117.36C350.248 116.634 348.416 116.032 346.414 115.552H346.521H358.105H359.236V114.422V103.351H364.96H366.09V102.221V91.1846ZM342.072 130.186C339.681 130.75 336.423 131.045 332.263 131.045C328.107 131.045 324.825 130.75 322.386 130.186C321.204 129.884 320.437 129.529 319.987 129.177C319.571 128.851 319.479 128.579 319.479 128.337C319.479 128.141 319.552 127.887 319.986 127.562C320.452 127.212 321.245 126.859 322.461 126.555C324.894 125.946 328.15 125.629 332.263 125.629C336.376 125.629 339.632 125.946 342.065 126.555C343.281 126.859 344.074 127.212 344.54 127.562C344.974 127.887 345.047 128.141 345.047 128.337C345.047 128.571 344.958 128.842 344.53 129.171C344.067 129.526 343.281 129.883 342.072 130.186Z" stroke="white" stroke-width="2.26131"/>
<path fill-rule="evenodd" clip-rule="evenodd" d="M297.721 79.9434V143.004H282.299V79.9434H297.721ZM267.014 80.2175H282.298V141.976H267.014V136.959L259.807 140.474L253.716 128.062C249.941 135.57 244.532 139.944 237.294 140.26L234.934 140.364V124.262L236.862 123.975C237.785 123.837 239.189 122.89 240.674 119.481C242.107 116.195 243.259 111.498 244.07 105.286C244.876 99.1032 245.284 91.8022 245.284 83.3699V81.0223L260.774 81.6031V83.7812C260.774 92.1576 260.344 99.7672 259.476 106.603L260.57 108.698V97.9025H267.014V80.2175ZM269.275 100.164H262.831V111.131H269.275V130.256L257.142 107.018C258.056 100.118 258.513 92.3724 258.513 83.7812L247.546 83.3699C247.546 84.133 247.542 84.8871 247.536 85.6325C247.469 93.19 247.061 99.8388 246.312 105.579C245.489 111.885 244.301 116.821 242.747 120.385C241.194 123.949 239.343 125.891 237.195 126.211V138.001C237.97 137.967 238.723 137.88 239.456 137.738C244.953 136.676 249.282 132.587 252.443 125.468C252.84 124.576 253.218 123.635 253.578 122.647L260.844 137.453L269.275 133.34V139.715H280.037V82.4789H269.275V100.164ZM267.014 121.039V113.392H263.021L267.014 121.039ZM295.459 82.2047H284.561V140.743H295.459V82.2047Z" fill="white"/>
<path d="M213.185 31.9346V30.804H212.054H189.331V30.5291H209.175H210.306V29.3984V22.2696V21.1389H209.175H169.041V21.0011H207.53H208.661V19.8705V13.29V12.1594H207.53H169.041V11.953H208.49H209.62V10.8224V3.625V2.49435H208.49H156.463H155.332V3.625V29.3984V30.5291H156.463H175.554V30.804H152.83H151.7V31.9346V40.3658V41.4965H152.83H171.483C167.994 41.9385 164.96 42.6209 162.387 43.5515C159.906 44.4345 157.939 45.5978 156.584 47.0961C155.207 48.6192 154.51 50.4379 154.51 52.4985C154.51 54.559 155.207 56.3778 156.584 57.9009C157.939 59.3991 159.906 60.5625 162.387 61.4455C167.362 63.2452 174.067 64.1167 182.442 64.1167C190.814 64.1167 197.497 63.2458 202.428 61.4456C204.929 60.5635 206.913 59.4016 208.279 57.9049C209.67 56.3823 210.374 54.5622 210.374 52.4985C210.374 50.4347 209.67 48.6147 208.279 47.0921C206.913 45.5954 204.929 44.4335 202.428 43.5513C199.879 42.6207 196.862 41.9384 193.385 41.4965H212.054H213.185V40.3658V31.9346ZM195.658 52.514C195.627 52.5317 195.592 52.5506 195.552 52.5706C195.1 52.8012 194.325 53.0352 193.152 53.2345C190.827 53.6294 187.271 53.8355 182.442 53.8355C177.613 53.8355 174.058 53.6294 171.733 53.2345C170.559 53.0352 169.784 52.8012 169.332 52.5706C169.292 52.5506 169.257 52.5317 169.227 52.514C169.268 52.4915 169.316 52.467 169.371 52.4407C169.875 52.2019 170.725 51.9649 171.994 51.7646C174.514 51.3667 177.988 51.1615 182.442 51.1615C186.896 51.1615 190.37 51.3667 192.89 51.7646C194.159 51.9649 195.009 52.2019 195.513 52.4407C195.569 52.467 195.617 52.4915 195.658 52.514ZM169.001 52.3453C169.002 52.3452 169.007 52.3504 169.013 52.3613C169.003 52.3509 169 52.3455 169.001 52.3453ZM168.992 52.6817C168.991 52.6816 168.994 52.6763 169.004 52.6662C168.997 52.6768 168.992 52.6819 168.992 52.6817ZM195.881 52.6662C195.89 52.6763 195.894 52.6816 195.893 52.6817C195.892 52.6818 195.887 52.6768 195.881 52.6662ZM195.872 52.3614C195.878 52.3504 195.882 52.3452 195.883 52.3453C195.884 52.3455 195.881 52.351 195.872 52.3614Z" stroke="white" stroke-width="2.26131"/>
<path d="M86.9292 39.6642V40.7949H88.0598C93.7715 40.7949 99.1609 39.4713 104.213 36.8274C108.958 34.3441 113.033 30.9629 116.435 26.6945L139.563 40.9018L140.515 41.4868L141.111 40.5414L147.075 31.082L147.7 30.0909L146.687 29.5017L122.804 15.6083C124.142 12.338 125.066 8.82179 125.578 5.06406L125.728 3.96616L124.633 3.79432L112.843 1.94357L111.704 1.76466L111.548 2.90778C110.881 7.79285 109.376 12.1176 107.046 15.9C104.707 19.6497 101.859 22.532 98.5082 24.5777C95.2041 26.5771 91.7274 27.5662 88.0598 27.5662H86.9292V28.6968V39.6642ZM147.249 48.918V47.7873H146.119H123.532V35.9628V34.8321H122.401H110.612H109.481V35.9628V47.7873H86.8945H85.7639V48.918V59.7483V60.879H86.8945H146.119H147.249V59.7483V48.918Z" stroke="white" stroke-width="2.26131"/>
</svg>
