<svg width="23" height="23" viewBox="0 0 23 23" fill="none" xmlns="http://www.w3.org/2000/svg">
<path d="M11.1096 18.7129C7.79277 16.5174 6.38553 15.0324 5.62734 14.1317ZM10.7883 5.83679L10.7906 5.83938ZM10.7883 5.83679L10.7906 5.83938ZM10.7906 5.83938C10.8806 5.94045 10.9908 6.02031 11.1129 6.07463C11.2351 6.12892 11.367 6.15673 11.4999 6.15673C11.6329 6.15673 11.7648 6.12892 11.8869 6.07463C12.0091 6.02031 12.1192 5.94045 12.2093 5.83938L12.2118 5.83654M12.2118 5.83654C12.9041 5.05057 14.0392 4.16925 15.6524 4.16925ZM15.6524 4.16925C17.8719 4.16925 19.6984 5.97573 19.7215 8.19185Z" stroke="white" stroke-width="1.38"/>
</svg>
