<svg width="46" height="46" viewBox="0 0 46 46" fill="none" xmlns="http://www.w3.org/2000/svg">
<rect width="46" height="46" rx="12.5455" fill="white"/>
<path d="M17.4707 17.5732C19.9605 15.3033 21.6816 12.3844 23.4453 8.16521C25.2927 12.3862 27.0458 15.3051 29.5519 17.5745C32.022 19.8113 35.1831 21.3802 39.7725 22.9899C35.1813 24.6057 32.0068 26.1702 29.5297 28.4046C27.0177 30.6704 25.2647 33.587 23.4417 37.8187C21.6794 33.5891 19.9589 30.6727 17.4705 28.4064C15.0159 26.1709 11.8551 24.6059 7.28882 22.99C11.8556 21.3803 15.0161 19.8111 17.4707 17.5732Z" stroke="url(#paint0_linear_523_12181)" stroke-width="1.12356"/>
<path d="M10.0522 11.2031H17.4087C21.408 11.2031 23.4621 12.9885 23.4621 15.6351C23.4711 16.5512 23.1393 17.4393 22.5285 18.1334C21.9178 18.8275 21.07 19.2802 20.1434 19.4069V19.5766C20.69 19.5936 21.2278 19.7165 21.7256 19.9382C22.2235 20.1598 22.6716 20.4759 23.044 20.8681C23.4164 21.2603 23.7058 21.7208 23.8955 22.2232C24.0852 22.7255 24.1713 23.2597 24.149 23.7948C24.149 26.6049 21.9279 28.6605 17.9736 28.6605H10.0522V11.2031ZM16.7219 18.4074C18.147 18.4074 19.1805 17.6593 19.1805 16.4083C19.1805 15.1573 18.2561 14.4784 16.7668 14.4784H14.2376V18.4074H16.7219ZM16.9915 25.3224C18.9173 25.3224 19.771 24.5681 19.771 23.3233C19.771 21.9529 18.7375 21.0728 17.0621 21.0854H14.2376V25.3224H16.9915Z" fill="white" stroke="white" stroke-width="2.24713" stroke-miterlimit="10"/>
<path d="M18.7808 17.918H34.8953V21.2698H29.6845V35.3754H25.679V21.2698H18.7808V17.918Z" fill="white" stroke="white" stroke-width="2.24713" stroke-miterlimit="10"/>
<path d="M10.0522 11.2031H17.1362C20.9872 11.2031 22.9653 12.9788 22.9653 15.6111C22.9739 16.5223 22.6544 17.4056 22.0663 18.0959C21.4782 18.7863 20.6618 19.2365 19.7695 19.3625V19.5313C20.2958 19.5482 20.8137 19.6704 21.2931 19.8909C21.7725 20.1114 22.204 20.4257 22.5626 20.8158C22.9213 21.2058 23.2 21.6639 23.3826 22.1635C23.5652 22.6632 23.6482 23.1944 23.6267 23.7267C23.6267 26.5215 21.4879 28.566 17.6801 28.566H10.0522V11.2031ZM16.4748 18.3684C17.847 18.3684 18.8423 17.6243 18.8423 16.3801C18.8423 15.1359 17.9521 14.4606 16.518 14.4606H14.0825V18.3684H16.4748ZM16.7344 25.246C18.5888 25.246 19.4109 24.4957 19.4109 23.2578C19.4109 21.8947 18.4157 21.0194 16.8024 21.0319H14.0825V25.246H16.7344Z" fill="url(#paint1_linear_523_12181)"/>
<path d="M18.7804 18.0182H34.8955V21.3508H29.6845V35.3749H25.6789V21.3508H18.7804V18.0182Z" fill="url(#paint2_linear_523_12181)"/>
<defs>
<linearGradient id="paint0_linear_523_12181" x1="12.3767" y1="2.21278" x2="27.2563" y2="64.3786" gradientUnits="userSpaceOnUse">
<stop offset="0.181879" stop-color="#F99494"/>
<stop offset="0.429982" stop-color="#FBC2A6"/>
<stop offset="0.609728" stop-color="#FFDDAB"/>
<stop offset="0.905" stop-color="#6473FF"/>
</linearGradient>
<linearGradient id="paint1_linear_523_12181" x1="14.7639" y1="7.86909" x2="26.5177" y2="53.6081" gradientUnits="userSpaceOnUse">
<stop offset="0.181879" stop-color="#F99494"/>
<stop offset="0.429982" stop-color="#FBC2A6"/>
<stop offset="0.609728" stop-color="#FFDDAB"/>
<stop offset="0.905" stop-color="#6473FF"/>
</linearGradient>
<linearGradient id="paint2_linear_523_12181" x1="14.7639" y1="7.86909" x2="26.5177" y2="53.6081" gradientUnits="userSpaceOnUse">
<stop offset="0.181879" stop-color="#F99494"/>
<stop offset="0.429982" stop-color="#FBC2A6"/>
<stop offset="0.609728" stop-color="#FFDDAB"/>
<stop offset="0.905" stop-color="#6473FF"/>
</linearGradient>
</defs>
</svg>
