<svg width="15" height="16" viewBox="0 0 15 16" fill="none" xmlns="http://www.w3.org/2000/svg">
<g clip-path="url(#clip0_453_20284)">
<path d="M12.7825 5.39223C12.721 5.43073 11.257 6.24323 11.257 8.04473C11.326 10.0992 13.1045 10.8197 13.135 10.8197C13.1045 10.8582 12.8665 11.8012 12.1615 12.7897C11.602 13.6412 10.981 14.4997 10.038 14.4997C9.14096 14.4997 8.81896 13.9322 7.78396 13.9322C6.67246 13.9322 6.35796 14.4997 5.50696 14.4997C4.56396 14.4997 3.89696 13.5952 3.30696 12.7517C2.54046 11.6477 1.88896 9.91523 1.86596 8.25173C1.85046 7.37023 2.01946 6.50373 2.44846 5.76773C3.05396 4.74023 4.13496 4.04273 5.31546 4.01973C6.21996 3.98923 7.02496 4.64073 7.57696 4.64073C8.10596 4.64073 9.09496 4.01973 10.214 4.01973C10.697 4.02023 11.985 4.16573 12.7825 5.39223ZM7.50046 3.84373C7.33946 3.03873 7.78396 2.23373 8.19796 1.72023C8.72696 1.09923 9.56246 0.677734 10.283 0.677734C10.329 1.48273 10.0375 2.27223 9.51646 2.84723C9.04896 3.46823 8.24396 3.93573 7.50046 3.84373Z" fill="black"/>
</g>
<defs>
<clipPath id="clip0_453_20284">
<rect width="15" height="15" fill="white" transform="translate(0 0.5)"/>
</clipPath>
</defs>
</svg>
