<svg xmlns="http://www.w3.org/2000/svg" viewBox="0 0 320.03 71.71"><defs><style>.cls-1{fill:#fff;}</style></defs><title>로고변경2</title><g id="레이어_2" data-name="레이어 2"><g id="레이어_1-2" data-name="레이어 1"><path class="cls-1" d="M0,5.68H21c11.43,0,17.3,5.21,17.3,12.94,0,5.8-3.94,9.81-9.49,11v.49A11.85,11.85,0,0,1,40.29,42.39c0,8.19-6.36,14.2-17.65,14.2H0Zm19.05,21c4.08,0,7-2.18,7-5.84,0-3.44-2.64-5.62-6.89-5.62H12V26.71Zm.78,20.18c5.45,0,7.94-2.22,7.94-5.84,0-4-2.95-6.57-7.73-6.54H12V46.89Z"/><path class="cls-1" d="M57,56.59H45.12V5.68H57Z"/><path class="cls-1" d="M69.55,0c2,4.88,3.53,6.34,8.85,8.14-5.32,1.81-6.88,3.25-8.85,8.15-1.9-4.9-3.46-6.34-8.75-8.15C66.09,6.34,67.65,4.88,69.55,0Z"/><rect class="cls-1" x="63.59" y="18.41" width="11.88" height="38.18"/><path class="cls-1" d="M93.94,56.59H82.05V18.41H93.3v7h.43c1.72-4.6,6-7.45,11.6-7.45,8,0,13.25,5.69,13.22,14.34V56.59H106.73V34.51c0-4.29-2.32-6.85-6.25-6.89s-6.54,2.67-6.54,7.1Z"/><path class="cls-1" d="M124.64,59.47h11.53c.49,2.78,3.13,4,6.82,3.94,4.29,0,7.24-1.79,7.24-6.75V49.91h-.42c-1.44,3.45-5.13,6.15-10.83,6.19-8.43,0-15.32-5.8-15.32-18.71,0-13.36,7.2-19.47,15.25-19.47a11.11,11.11,0,0,1,10.83,7h.35V18.41h11.82V56.8c0,9.7-7.81,14.91-19.2,14.91C131.74,71.71,125.17,66.75,124.64,59.47ZM143,47.38c4.61,0,7.28-3.69,7.24-10S147.6,27.2,143,27.2s-7.17,4-7.17,10.19S138.39,47.38,143,47.38Z"/><path class="cls-1" d="M181.9,5.68h42.82v9.78H209.25V56.59H197.37V15.46H181.9Z"/><path class="cls-1" d="M236.82,34c2.78-.18,7.53-.35,9.14-.42V30.5c0-2.67-2-4.18-5.2-4.14s-5.17,1.37-5.63,3.86h-11c.52-6.75,6.22-12.3,16.94-12.3,9.42,0,16.77,4.46,16.81,12.72v26H246.67V51.25h-.29c-2.07,3.86-5.76,6-11.1,6-7.32,0-12.63-3.76-12.59-11.32C222.65,37.5,229.23,34.48,236.82,34Zm2,15.4c4,0,7.21-2.64,7.17-6.4V40.56c-1.44,0-5.45.24-7.24.42-3,.32-4.89,2-4.85,4.5S236,49.42,238.86,49.42Z"/><path class="cls-1" d="M276,56.59H264.08V5.68H276Z"/><path class="cls-1" d="M282.55,5.68h11.88V32.26h.49l11-13.85h13.5L305.72,35,320,56.59H306.31L296.93,42l-2.5,3V56.59H282.55Z"/></g></g></svg>