<svg xmlns="http://www.w3.org/2000/svg" viewBox="0 0 66 66"><defs><style>.cls-1,.cls-3{fill:#fff;stroke:#fff;stroke-miterlimit:10;}.cls-2{fill:#f79292;}.cls-3{stroke-width:3px;}.cls-4{fill:#f99494;}</style></defs><title>앱아이콘</title><g id="레이어_2" data-name="레이어 2"><g id="레이어_1-2" data-name="레이어 1"><rect class="cls-1" x="0.5" y="0.5" width="65" height="65" rx="12"/><path class="cls-2" d="M40.7,11.93C41,25.08,44,31.92,53.47,41c-13,.35-19.83,3.29-29,12.92-.32-13.15-3.33-20-12.77-29.08,13-.35,19.83-3.3,29-12.92m2-5.17h0Zm0,0C31.4,19.69,25,22.89,8.85,22.89l-2.29,0C20,34.68,22.82,41.15,22.46,59.1,33.75,46.17,40.14,43,56.31,43l2.28,0C45.18,31.18,42.34,24.71,42.7,6.76Z"/><path class="cls-3" d="M12.81,15.86H24.27c6.23,0,9.43,2.84,9.43,7.05a6,6,0,0,1-5.17,6v.27a6.45,6.45,0,0,1,6.24,6.71c0,4.47-3.46,7.74-9.62,7.74H12.81ZM23.2,27.32c2.22,0,3.83-1.19,3.83-3.18s-1.44-3.07-3.76-3.07H19.33v6.25Zm.42,11c3,0,4.33-1.2,4.33-3.18,0-2.18-1.61-3.58-4.22-3.56h-4.4v6.74Z"/><path class="cls-3" d="M26.93,26.76H53v5.33H44.57V54.52H38.09V32.09H26.93Z"/><path class="cls-4" d="M12.81,15.86H24.27c6.23,0,9.43,2.84,9.43,7.05a6,6,0,0,1-5.17,6v.27a6.45,6.45,0,0,1,6.24,6.71c0,4.47-3.46,7.74-9.62,7.74H12.81ZM23.2,27.32c2.22,0,3.83-1.19,3.83-3.18s-1.44-3.07-3.76-3.07H19.33v6.25Zm.42,11c3,0,4.33-1.2,4.33-3.18,0-2.18-1.61-3.58-4.22-3.56h-4.4v6.74Z"/><path class="cls-4" d="M26.93,26.76H53v5.33H44.57V54.52H38.09V32.09H26.93Z"/></g></g></svg>