<svg width="360" height="790" viewBox="0 0 360 790" fill="none" xmlns="http://www.w3.org/2000/svg">
<g clip-path="url(#clip0_238_7017)">
<rect width="360" height="790" fill="#FD8DA8"/>
<path d="M0 44H360V790H0V44Z" fill="white"/>
<rect x="144" y="717" width="72" height="34" rx="17" fill="white"/>
<path d="M171.398 731.713C171.303 730.79 170.496 730.264 169.361 730.264C168.151 730.264 167.386 730.886 167.379 731.727C167.379 732.663 168.397 733.032 169.184 733.217L170.141 733.477C171.405 733.784 172.991 734.475 172.998 736.266C172.991 737.94 171.658 739.164 169.32 739.164C167.105 739.164 165.711 738.057 165.615 736.252H167.119C167.208 737.332 168.165 737.845 169.32 737.852C170.585 737.845 171.501 737.209 171.508 736.238C171.501 735.377 170.681 735.028 169.635 734.748L168.459 734.434C166.866 733.996 165.882 733.189 165.875 731.809C165.882 730.1 167.399 728.965 169.402 728.965C171.412 728.965 172.813 730.113 172.861 731.713H171.398ZM174.471 739V729.102H175.975V733.818H176.098L180.241 729.102H182.128L178.135 733.559L182.141 739H180.323L177.137 734.584L175.975 735.924V739H174.471ZM184.736 729.102V739H183.232V729.102H184.736ZM186.605 739V729.102H190.133C192.436 729.102 193.564 730.482 193.564 732.314C193.564 734.14 192.43 735.527 190.133 735.527H188.109V739H186.605ZM188.109 734.242H189.982C191.438 734.249 192.047 733.429 192.047 732.314C192.047 731.193 191.438 730.394 189.982 730.387H188.109V734.242Z" fill="#BCBCBC"/>
<path d="M165 741.194H194.139V742.254H165V741.194Z" fill="#BCBCBC"/>
<path d="M360.5 693H0" stroke="#F4F4F4" stroke-linecap="square"/>
<rect x="112" y="777" width="135" height="5" rx="2.5" fill="#AAAAAA"/>
<circle cx="157.5" cy="625.5" r="4.5" fill="#FD8DA8"/>
<circle cx="172.5" cy="625.5" r="4" fill="#DEDEDE" stroke="#DEDEDE"/>
<circle cx="187.5" cy="625.5" r="4.5" fill="url(#paint0_linear_238_7017)"/>
<circle cx="202.5" cy="625.5" r="4.5" fill="url(#paint1_linear_238_7017)"/>
<path d="M288.688 669.969V675H287.016V666.516H288.625V667.906H288.719C289.117 666.992 289.953 666.406 291.219 666.406C292.961 666.406 294.117 667.508 294.109 669.609V675H292.453V669.812C292.445 668.578 291.781 667.844 290.656 667.844C289.508 667.844 288.688 668.617 288.688 669.969ZM299.637 675.172C297.137 675.172 295.598 673.445 295.606 670.812C295.598 668.203 297.16 666.406 299.528 666.406C301.457 666.406 303.293 667.602 303.293 670.672V671.266H297.262C297.309 672.883 298.262 673.797 299.653 673.797C300.598 673.797 301.215 673.391 301.496 672.875H303.184C302.809 674.25 301.504 675.172 299.637 675.172ZM297.27 670.016H301.653C301.653 668.727 300.817 667.773 299.543 667.781C298.207 667.773 297.34 668.82 297.27 670.016ZM305.914 666.516L307.774 669.812L309.649 666.516H311.477L308.836 670.75L311.493 675H309.68L307.774 671.828L305.883 675H304.055L306.68 670.75L304.071 666.516H305.914ZM316.801 666.516V667.844H315.067V672.5C315.075 673.461 315.543 673.633 316.083 673.641C316.325 673.641 316.692 673.617 316.926 673.594V675.047C316.7 675.078 316.34 675.109 315.879 675.109C314.575 675.109 313.395 674.391 313.411 672.844V667.844H312.161V666.516H313.411V664.484H315.067V666.516H316.801Z" fill="#FD8DA8"/>
<path d="M322 667L326 670.5L322 674" stroke="#FD8DA8" stroke-width="1.5" stroke-linecap="square"/>
<path fill-rule="evenodd" clip-rule="evenodd" d="M273 20H274C274.552 20 275 20.4477 275 21V27C275 27.5523 274.552 28 274 28H273C272.448 28 272 27.5523 272 27V21C272 20.4477 272.448 20 273 20Z" fill="white"/>
<path fill-rule="evenodd" clip-rule="evenodd" d="M268.5 22H269.5C270.052 22 270.5 22.4477 270.5 23V27C270.5 27.5523 270.052 28 269.5 28H268.5C267.948 28 267.5 27.5523 267.5 27V23C267.5 22.4477 267.948 22 268.5 22Z" fill="white"/>
<path fill-rule="evenodd" clip-rule="evenodd" d="M264 23.5H265C265.552 23.5 266 23.9477 266 24.5V27C266 27.5523 265.552 28 265 28H264C263.448 28 263 27.5523 263 27V24.5C263 23.9477 263.448 23.5 264 23.5Z" fill="white"/>
<path fill-rule="evenodd" clip-rule="evenodd" d="M277.5 18H278.5C279.052 18 279.5 18.4477 279.5 19V27C279.5 27.5523 279.052 28 278.5 28H277.5C276.948 28 276.5 27.5523 276.5 27V19C276.5 18.4477 276.948 18 277.5 18Z" fill="white" fill-opacity="0.18"/>
<path fill-rule="evenodd" clip-rule="evenodd" d="M273 20H274C274.552 20 275 20.4477 275 21V27C275 27.5523 274.552 28 274 28H273C272.448 28 272 27.5523 272 27V21C272 20.4477 272.448 20 273 20Z" fill="white"/>
<path fill-rule="evenodd" clip-rule="evenodd" d="M268.5 22H269.5C270.052 22 270.5 22.4477 270.5 23V27C270.5 27.5523 270.052 28 269.5 28H268.5C267.948 28 267.5 27.5523 267.5 27V23C267.5 22.4477 267.948 22 268.5 22Z" fill="white"/>
<path fill-rule="evenodd" clip-rule="evenodd" d="M264 23.5H265C265.552 23.5 266 23.9477 266 24.5V27C266 27.5523 265.552 28 265 28H264C263.448 28 263 27.5523 263 27V24.5C263 23.9477 263.448 23.5 264 23.5Z" fill="white"/>
<path d="M293.133 24.9395C293.772 24.9395 294.394 25.1075 294.941 25.4279L295.163 25.5577C295.331 25.6562 295.361 25.8865 295.223 26.024L293.329 27.9129C293.213 28.0289 293.024 28.0289 292.908 27.9129L291.026 26.0362C290.888 25.8993 290.917 25.6701 291.084 25.5709L291.303 25.4405C291.856 25.112 292.485 24.9395 293.133 24.9395Z" fill="white"/>
<path d="M293.133 21.4707C294.724 21.4707 296.251 21.9984 297.495 22.9758L297.671 23.1139C297.811 23.224 297.824 23.4315 297.697 23.5573L296.567 24.685C296.462 24.7893 296.297 24.8013 296.178 24.7131L296.04 24.6107C295.2 23.9861 294.186 23.6511 293.133 23.6511C292.073 23.6511 291.053 23.9903 290.21 24.622L290.072 24.7254C289.953 24.8142 289.787 24.8025 289.682 24.6979L288.552 23.5707C288.426 23.4451 288.438 23.2382 288.578 23.1279L288.753 22.9896C290 22.0036 291.534 21.4707 293.133 21.4707Z" fill="white"/>
<path d="M293.133 18C295.657 18 298.072 18.8906 299.983 20.5229L300.146 20.6623C300.278 20.7749 300.285 20.9756 300.163 21.098L299.036 22.2219C298.926 22.3308 298.752 22.3385 298.634 22.2395L298.494 22.1228C296.989 20.8647 295.104 20.1804 293.133 20.1804C291.155 20.1804 289.263 20.8694 287.756 22.1354L287.617 22.2527C287.498 22.3521 287.324 22.3447 287.214 22.2356L286.087 21.1118C285.965 20.9895 285.972 20.7892 286.104 20.6765L286.266 20.5371C288.18 18.8959 290.601 18 293.133 18Z" fill="white"/>
<path d="M329 21V21C329.552 21 330 21.4477 330 22V24C330 24.5523 329.552 25 329 25V25V21Z" fill="white" fill-opacity="0.6"/>
<path fill-rule="evenodd" clip-rule="evenodd" d="M308 17H325C326.657 17 328 18.3431 328 20V26C328 27.6569 326.657 29 325 29H308C306.343 29 305 27.6569 305 26V20C305 18.3431 306.343 17 308 17ZM308 18C306.895 18 306 18.8954 306 20V26C306 27.1046 306.895 28 308 28H325C326.105 28 327 27.1046 327 26V20C327 18.8954 326.105 18 325 18H308Z" fill="white" fill-opacity="0.6"/>
<rect x="307" y="19" width="19" height="8" rx="1" fill="white"/>
<path d="M37.8672 28.0889C40.5552 28.0889 42.1519 25.9868 42.1519 22.4272C42.1519 21.0869 41.8955 19.959 41.4048 19.0874C40.6943 17.7324 39.4712 17 37.9258 17C35.626 17 34 18.5454 34 20.7134C34 22.7495 35.4648 24.229 37.479 24.229C38.7168 24.229 39.7202 23.6504 40.2183 22.647H40.2402C40.2402 22.647 40.2695 22.647 40.2769 22.647C40.2915 22.647 40.3428 22.647 40.3428 22.647C40.3428 25.064 39.4272 26.5068 37.8818 26.5068C36.9736 26.5068 36.2705 26.0088 36.0288 25.2104H34.1465C34.4614 26.9463 35.9336 28.0889 37.8672 28.0889ZM37.9331 22.7275C36.7173 22.7275 35.853 21.8633 35.853 20.6548C35.853 19.4756 36.7612 18.5747 37.9404 18.5747C39.1196 18.5747 40.0278 19.4902 40.0278 20.6841C40.0278 21.8633 39.1416 22.7275 37.9331 22.7275Z" fill="white"/>
<path d="M45.243 27.9863C45.9388 27.9863 46.4148 27.4883 46.4148 26.8291C46.4148 26.1626 45.9388 25.6719 45.243 25.6719C44.5545 25.6719 44.0711 26.1626 44.0711 26.8291C44.0711 27.4883 44.5545 27.9863 45.243 27.9863ZM45.243 22.4932C45.9388 22.4932 46.4148 22.0024 46.4148 21.3433C46.4148 20.6768 45.9388 20.186 45.243 20.186C44.5545 20.186 44.0711 20.6768 44.0711 21.3433C44.0711 22.0024 44.5545 22.4932 45.243 22.4932Z" fill="white"/>
<path d="M53.2706 27.8325H55.0797V25.8623H56.5079V24.2656H55.0797V17.2637H52.4137C50.546 20.0762 49.0592 22.4272 48.107 24.1777V25.8623H53.2706V27.8325ZM49.8575 24.1997C51.088 22.0317 52.1866 20.2959 53.1974 18.8018H53.2999V24.3096H49.8575V24.1997Z" fill="white"/>
<path d="M60.5365 27.8325H62.4262V17.2637H60.5438L57.7826 19.1973V21.0137L60.412 19.168H60.5365V27.8325Z" fill="white"/>
<path d="M133.491 460.878V469.432H131.45V460.878H133.491ZM119.538 467.799C122.256 466.936 123.685 464.784 123.676 462.585V461.286H125.81V462.585C125.8 464.719 127.22 466.713 129.873 467.521L128.871 469.116C126.923 468.513 125.531 467.27 124.771 465.674C124.01 467.409 122.581 468.773 120.577 469.413L119.538 467.799ZM122.396 471.807V470.211H133.528V474.571H124.455V475.87H134.029V477.503H122.433V473.031H131.469V471.807H122.396ZM142.133 464.904C142.115 467.984 143.738 471.064 146.456 472.233L145.232 473.885C143.302 472.994 141.892 471.222 141.113 469.033C140.343 471.389 138.895 473.319 136.864 474.274L135.602 472.549C138.394 471.343 140.027 468.142 140.037 464.904V462.232H142.133V464.904ZM147.663 477.67V460.878H149.741V477.67H147.663ZM165.248 460.878V465.702H167.586V467.428H165.248V472.976H163.151V460.878H165.248ZM151.963 469.599C155.804 468.485 158.077 466.398 158.429 463.847H152.668V462.158H160.683C160.693 466.611 157.78 469.793 152.816 471.231L151.963 469.599ZM154.468 477.317V471.732H156.564V475.647H165.879V477.317H154.468ZM177.689 465.98C177.689 468.541 178.738 471.176 181.122 472.419L179.953 473.94C178.394 473.124 177.337 471.658 176.734 469.905C176.14 471.797 175.082 473.421 173.514 474.312L172.327 472.79C174.674 471.426 175.732 468.634 175.741 465.98V465.517H172.809V463.828H175.741V461.472H177.689V463.828H180.584V465.517H177.689V465.98ZM181.474 476.835V461.175H183.423V467.446H185.148V460.878H187.115V477.651H185.148V469.153H183.423V476.835H181.474ZM197.835 462.084V463.717H191.823V465.312H197.353V466.927H191.823V468.541C194.959 468.55 196.87 468.504 199.078 468.133L199.282 469.766C196.88 470.165 194.774 470.22 191.155 470.211H189.727V462.084H197.835ZM191.378 474.497C191.369 472.512 193.53 471.352 197.112 471.361C200.628 471.352 202.845 472.512 202.845 474.497C202.845 476.482 200.628 477.633 197.112 477.633C193.53 477.633 191.369 476.482 191.378 474.497ZM193.438 474.497C193.419 475.499 194.727 476.037 197.112 476.037C199.44 476.037 200.785 475.499 200.785 474.497C200.785 473.504 199.44 472.957 197.112 472.957C194.727 472.957 193.419 473.504 193.438 474.497ZM200.693 471.12V460.896H202.771V471.12H200.693ZM223.357 460.878V477.651H221.279V460.878H223.357ZM209.46 473.031C213.857 470.944 215.88 468.105 216.251 464.292H210.314V462.659H218.348C218.348 467.65 216.409 471.89 210.536 474.683L209.46 473.031ZM239.143 465.238V466.908H227.565V461.175H229.625V465.238H239.143ZM225.58 470.192V468.522H240.887V470.192H225.58ZM227.361 474.497C227.361 472.521 229.56 471.408 233.206 471.398C236.824 471.408 239.004 472.521 239.013 474.497C239.004 476.464 236.824 477.577 233.206 477.577C229.56 477.577 227.361 476.464 227.361 474.497ZM229.458 474.497C229.448 475.462 230.766 475.991 233.206 476C235.608 475.991 236.935 475.462 236.954 474.497C236.935 473.504 235.608 473.022 233.206 473.013C230.766 473.022 229.448 473.504 229.458 474.497Z" fill="#292929"/>
<path d="M92.6569 498.297C93.9303 498.297 94.985 499.008 95.6178 500.25H98.9225V497.266H100.641V511.406H98.9225V506.062H95.7428C95.1256 507.469 94.0163 508.281 92.6569 508.281C90.5319 508.281 89.0241 506.352 89.0319 503.281C89.0241 500.234 90.5319 498.297 92.6569 498.297ZM90.7038 503.281C90.6959 505.453 91.4928 506.711 92.6569 506.719C93.8288 506.711 94.6178 505.453 94.6256 503.281C94.6178 501.125 93.8288 499.859 92.6569 499.859C91.4928 499.859 90.6959 501.125 90.7038 503.281ZM96.11 501.672C96.2116 502.164 96.2663 502.703 96.2663 503.281C96.2663 503.766 96.2272 504.227 96.1491 504.656H98.9225V501.672H96.11ZM114.294 497.266V511.406H112.559V503.891H110.138V502.469H112.559V497.266H114.294ZM102.934 499.906V498.5H109.325V503.672H104.7V506.641C106.802 506.633 108.489 506.562 110.388 506.219L110.528 507.641C108.427 508.008 106.536 508.086 104.106 508.094H102.981V502.266H107.622V499.906H102.934ZM127.962 497.266V505.578H126.228V503.625H123.384V504.719H116.743V498.328H123.384V499.422H126.228V497.266H127.962ZM118.384 508.672C118.368 506.953 120.204 505.945 123.181 505.953C126.173 505.945 128.001 506.953 128.009 508.672C128.001 510.391 126.173 511.375 123.181 511.375C120.204 511.375 118.368 510.391 118.384 508.672ZM118.478 503.328H121.665V499.703H118.478V503.328ZM120.103 508.672C120.095 509.547 121.22 510.031 123.181 510.031C125.157 510.031 126.274 509.547 126.274 508.672C126.274 507.758 125.157 507.289 123.181 507.281C121.22 507.289 120.095 507.758 120.103 508.672ZM123.384 502.219H126.228V500.797H123.384V502.219ZM132.552 508.891L131.239 513.266H129.755L130.568 508.891H132.552ZM142.419 498.688V510H140.373V500.672H140.31L137.669 502.359V500.5L140.466 498.688H142.419ZM156.697 497.266V511.391H155.041V504.188H153.447V510.672H151.853V497.531H153.447V502.797H155.041V497.266H156.697ZM144.978 508.094V498.938H150.259V500.344H146.728V506.625C148.259 506.609 149.525 506.531 150.963 506.266L151.088 507.688C149.377 508.031 147.9 508.078 145.931 508.094H144.978ZM166.908 498.688V510H164.861V500.672H164.799L162.158 502.359V500.5L164.955 498.688H166.908ZM181.936 508.312V509.75H169.029V508.312H174.592V506.016H170.561V501.391H178.686V499.641H170.529V498.234H180.404V502.766H172.295V504.594H180.732V506.016H176.311V508.312H181.936ZM198.069 497.266V504.469H196.35V497.266H198.069ZM186.319 503.094C188.608 502.367 189.811 500.555 189.803 498.703V497.609H191.6V498.703C191.592 500.5 192.787 502.18 195.022 502.859L194.178 504.203C192.537 503.695 191.366 502.648 190.725 501.305C190.084 502.766 188.881 503.914 187.194 504.453L186.319 503.094ZM188.725 506.469V505.125H198.1V508.797H190.459V509.891H198.522V511.266H188.756V507.5H196.366V506.469H188.725ZM205.346 500.656C205.331 503.25 206.698 505.844 208.987 506.828L207.956 508.219C206.331 507.469 205.143 505.977 204.487 504.133C203.838 506.117 202.62 507.742 200.909 508.547L199.846 507.094C202.198 506.078 203.573 503.383 203.581 500.656V498.406H205.346V500.656ZM210.003 511.406V497.266H211.753V511.406H210.003ZM224.811 497.266V501.328H226.78V502.781H224.811V507.453H223.046V497.266H224.811ZM213.624 504.609C216.858 503.672 218.772 501.914 219.069 499.766H214.217V498.344H220.967C220.975 502.094 218.522 504.773 214.342 505.984L213.624 504.609ZM215.733 511.109V506.406H217.499V509.703H225.342V511.109H215.733ZM235.288 501.562C235.288 503.719 236.171 505.938 238.179 506.984L237.194 508.266C235.882 507.578 234.991 506.344 234.483 504.867C233.983 506.461 233.093 507.828 231.773 508.578L230.773 507.297C232.749 506.148 233.64 503.797 233.648 501.562V501.172H231.179V499.75H233.648V497.766H235.288V499.75H237.726V501.172H235.288V501.562ZM238.476 510.703V497.516H240.116V502.797H241.569V497.266H243.226V511.391H241.569V504.234H240.116V510.703H238.476ZM252.253 498.281V499.656H247.191V501H251.847V502.359H247.191V503.719C249.831 503.727 251.441 503.688 253.3 503.375L253.472 504.75C251.448 505.086 249.675 505.133 246.628 505.125H245.425V498.281H252.253ZM246.816 508.734C246.808 507.062 248.628 506.086 251.644 506.094C254.605 506.086 256.472 507.062 256.472 508.734C256.472 510.406 254.605 511.375 251.644 511.375C248.628 511.375 246.808 510.406 246.816 508.734ZM248.55 508.734C248.534 509.578 249.636 510.031 251.644 510.031C253.605 510.031 254.738 509.578 254.738 508.734C254.738 507.898 253.605 507.438 251.644 507.438C249.636 507.438 248.534 507.898 248.55 508.734ZM254.659 505.891V497.281H256.409V505.891H254.659ZM264.734 497.484C267.952 497.492 269.82 498.344 269.827 499.906C269.82 501.484 267.952 502.336 264.734 502.344C261.523 502.336 259.64 501.484 259.64 499.906C259.64 498.344 261.523 497.492 264.734 497.484ZM258.312 504.484V503.094H271.187V504.484H258.312ZM259.827 506.719V505.438H269.577V508.891H261.546V509.938H269.968V511.266H259.843V507.656H267.874V506.719H259.827ZM261.468 499.906C261.46 500.688 262.585 501.047 264.734 501.047C266.913 501.047 268.031 500.688 268.031 499.906C268.031 499.18 266.913 498.766 264.734 498.766C262.585 498.766 261.46 499.18 261.468 499.906ZM133.136 527.141V528.547H127.527V533.375H125.808V528.547H120.261V527.141H133.136ZM120.933 524.828C123.706 524.477 125.566 522.984 125.691 521.438H121.448V520.062H131.948V521.438H127.706C127.823 522.984 129.667 524.477 132.464 524.828L131.839 526.188C129.433 525.844 127.558 524.742 126.698 523.219C125.831 524.742 123.972 525.844 121.589 526.188L120.933 524.828ZM145.46 520.562V521.922C145.445 523.68 145.445 525.641 144.898 528.594L143.148 528.406C143.702 525.656 143.702 523.648 143.71 521.953H135.273V520.562H145.46ZM133.929 531.562V530.141H138.679V525.234H140.398V530.141H146.804V531.562H133.929ZM162.375 519.266V522.547H164.343V523.984H162.375V527.5H160.64V519.266H162.375ZM151.718 526.75V520.094H153.437V522.016H156.734V520.094H158.453V526.75H151.718ZM153.265 533.188V528.188H162.468V529.578H155V531.812H162.734V533.188H153.265ZM153.437 525.375H156.734V523.359H153.437V525.375ZM171.324 519.484C174.543 519.492 176.41 520.344 176.418 521.906C176.41 523.484 174.543 524.336 171.324 524.344C168.113 524.336 166.23 523.484 166.23 521.906C166.23 520.344 168.113 519.492 171.324 519.484ZM164.902 526.484V525.094H177.777V526.484H164.902ZM166.418 528.719V527.438H176.168V530.891H168.137V531.938H176.558V533.266H166.433V529.656H174.465V528.719H166.418ZM168.058 521.906C168.051 522.688 169.176 523.047 171.324 523.047C173.504 523.047 174.621 522.688 174.621 521.906C174.621 521.18 173.504 520.766 171.324 520.766C169.176 520.766 168.051 521.18 168.058 521.906ZM189.567 520.438C189.559 522.211 191.551 524.016 194.567 524.406L193.879 525.812C191.481 525.453 189.574 524.273 188.652 522.68C187.731 524.273 185.832 525.453 183.457 525.812L182.77 524.406C185.754 524.016 187.738 522.227 187.738 520.438V519.719H189.567V520.438ZM182.207 528.469V527.031H195.082V528.469H189.473V533.391H187.754V528.469H182.207ZM204.528 528.453C204.528 529.633 205.067 530.859 206.278 531.641C207.512 530.805 208.083 529.523 208.09 528.453V527.875H209.793V528.453C209.786 529.93 210.661 531.32 212.512 531.906L211.668 533.172C210.293 532.711 209.387 531.812 208.895 530.68C208.434 531.797 207.606 532.781 206.325 533.297C204.981 532.805 204.137 531.852 203.692 530.734C203.184 531.82 202.286 532.703 200.981 533.172L200.122 531.906C201.95 531.266 202.833 529.828 202.84 528.453V527.875H204.528V528.453ZM199.762 523.391C199.762 521.406 201.387 520.031 203.575 520.031C205.754 520.031 207.379 521.406 207.372 523.391C207.379 525.352 205.754 526.742 203.575 526.734C201.387 526.742 199.762 525.352 199.762 523.391ZM201.465 523.391C201.458 524.547 202.34 525.289 203.575 525.297C204.786 525.289 205.668 524.547 205.668 523.391C205.668 522.234 204.786 521.492 203.575 521.5C202.34 521.492 201.458 522.234 201.465 523.391ZM209.528 527.281V519.281H211.278V527.281H209.528ZM217.04 520.297C218.946 520.297 220.36 521.891 220.61 524.469H223.305V519.266H225.024V533.406H223.305V525.875H220.626C220.438 528.602 219.001 530.281 217.04 530.281C214.915 530.281 213.407 528.352 213.415 525.281C213.407 522.234 214.915 520.297 217.04 520.297ZM215.087 525.281C215.079 527.453 215.876 528.711 217.04 528.719C218.212 528.711 219.001 527.453 219.008 525.281C219.001 523.125 218.212 521.859 217.04 521.859C215.876 521.859 215.079 523.125 215.087 525.281ZM239.755 530.25V531.672H226.848V530.25H229.833V526.68C228.708 526.031 228.028 525.016 228.036 523.766C228.028 521.516 230.231 520.031 233.27 520.031C236.325 520.031 238.544 521.516 238.536 523.766C238.544 525 237.88 525.992 236.786 526.641V530.25H239.755ZM229.739 523.766C229.731 525.211 231.161 526.133 233.27 526.125C235.372 526.133 236.833 525.211 236.833 523.766C236.833 522.297 235.372 521.398 233.27 521.406C231.161 521.398 229.731 522.297 229.739 523.766ZM231.552 530.25H235.02V527.305C234.481 527.422 233.895 527.484 233.27 527.484C232.661 527.484 232.083 527.422 231.552 527.312V530.25Z" fill="#777777"/>
<circle cx="180" cy="294" r="131.5" fill="white" stroke="#B9B9B9"/>
</g>
<defs>
<linearGradient id="paint0_linear_238_7017" x1="186.638" y1="618.068" x2="188.375" y2="634.51" gradientUnits="userSpaceOnUse">
<stop offset="0.520833" stop-color="#DEDEDE"/>
</linearGradient>
<linearGradient id="paint1_linear_238_7017" x1="201.638" y1="618.068" x2="203.375" y2="634.51" gradientUnits="userSpaceOnUse">
<stop offset="0.520833" stop-color="#DEDEDE"/>
</linearGradient>
<clipPath id="clip0_238_7017">
<rect width="360" height="790" fill="white"/>
</clipPath>
</defs>
</svg>
