<svg xmlns="http://www.w3.org/2000/svg" xmlns:xlink="http://www.w3.org/1999/xlink" viewBox="0 0 54.13 26.21"><defs><style>.cls-1{fill:none;}.cls-2{fill:#fff;}.cls-3{clip-path:url(#clip-path);}.cls-4{fill:url(#무제_그라디언트_37);}</style><clipPath id="clip-path" transform="translate(0 5.4)"><path class="cls-1" d="M54.06,11.81s-13.2,9-28,9S.49,10.31.49,10.31,12.27.81,27.06.81,54.06,11.81,54.06,11.81Z"/></clipPath><linearGradient id="무제_그라디언트_37" x1="24.39" y1="18.17" x2="24.18" y2="4.25" gradientUnits="userSpaceOnUse"><stop offset="0" stop-color="#2b2322"/><stop offset="0.53" stop-color="#292121"/><stop offset="0.72" stop-color="#221c1b"/><stop offset="0.86" stop-color="#171212"/><stop offset="0.97" stop-color="#060505"/><stop offset="1"/></linearGradient></defs><title>전-왼</title><g id="레이어_2" data-name="레이어 2"><g id="레이어_1-2" data-name="레이어 1"><g id="전-왼"><g id="후"><path class="cls-2" d="M54.06,11.81s-13.2,9-28,9S.49,10.31.49,10.31,12.27.81,27.06.81,54.06,11.81,54.06,11.81Z" transform="translate(0 5.4)"/><g class="cls-3"><circle class="cls-4" cx="24.28" cy="10.71" r="10.71"/></g><g class="cls-3"><circle cx="24.28" cy="10.71" r="7.14"/></g><path d="M0,10.74a40.87,40.87,0,0,1,12.53-8A36,36,0,0,1,27.29,0,37.54,37.54,0,0,1,41.77,3.6a51.39,51.39,0,0,1,12.36,8.14l-.13.15A50.68,50.68,0,0,0,41.37,4.52,36.07,36.07,0,0,0,27.28,1.63a44.27,44.27,0,0,0-14,2.93A72.63,72.63,0,0,0,.13,10.89Z" transform="translate(0 5.4)"/></g><ellipse class="cls-2" cx="29.06" cy="10.71" rx="2" ry="1.5"/></g></g></g></svg>