<svg xmlns="http://www.w3.org/2000/svg" xmlns:xlink="http://www.w3.org/1999/xlink" viewBox="0 0 30 13"><defs><style>.cls-1{fill:none;}.cls-2{fill:#fff;}.cls-3{clip-path:url(#clip-path);}.cls-4{fill:#282120;}</style><clipPath id="clip-path" transform="translate(0 2)"><path class="cls-1" d="M30,4s-6.72,7-15,7S0,4,0,4A32.57,32.57,0,0,1,15,0,32.57,32.57,0,0,1,30,4Z"/></clipPath></defs><title>전</title><g id="레이어_2" data-name="레이어 2"><g id="레이어_1-2" data-name="레이어 1"><g id="전"><g id="전-2" data-name="전"><path class="cls-2" d="M30,4s-6.72,7-15,7S0,4,0,4A32.57,32.57,0,0,1,15,0,32.57,32.57,0,0,1,30,4Z" transform="translate(0 2)"/><g class="cls-3"><circle cx="15" cy="6" r="5.5"/><path d="M15-1a5,5,0,1,1-5,5,5,5,0,0,1,5-5m0-1a6,6,0,1,0,6,6,6,6,0,0,0-6-6Z" transform="translate(0 2)"/><circle class="cls-4" cx="15" cy="6" r="4"/></g></g><path class="cls-2" d="M18.17,4.36C17.6,5,18,3.54,17.42,3s-2-.06-1.43-.67a1.5,1.5,0,0,1,2.18,2.06Z" transform="translate(0 2)"/></g></g></g></svg>