<svg xmlns="http://www.w3.org/2000/svg" xmlns:xlink="http://www.w3.org/1999/xlink" viewBox="0 0 53.72 27.18"><defs><style>.cls-1{fill:none;}.cls-2{fill:#fff;}.cls-3{clip-path:url(#clip-path);}.cls-4{fill:url(#무제_그라디언트_37);}</style><clipPath id="clip-path"><path class="cls-1" d="M53.64,18.18s-13.2,9-28,9S.07,16.68.07,16.68s12-12.5,26.79-12.5S53.64,18.18,53.64,18.18Z"/></clipPath><linearGradient id="무제_그라디언트_37" x1="23.97" y1="21.13" x2="23.76" y2="7.22" gradientUnits="userSpaceOnUse"><stop offset="0" stop-color="#2b2322"/><stop offset="0.53" stop-color="#292121"/><stop offset="0.72" stop-color="#221c1b"/><stop offset="0.86" stop-color="#171212"/><stop offset="0.97" stop-color="#060505"/><stop offset="1"/></linearGradient></defs><title>후-오</title><g id="레이어_2" data-name="레이어 2"><g id="레이어_1-2" data-name="레이어 1"><g id="후-오"><g id="후"><path class="cls-2" d="M53.64,18.18s-13.2,9-28,9S.07,16.68.07,16.68s12-12.5,26.79-12.5S53.64,18.18,53.64,18.18Z"/><g class="cls-3"><circle class="cls-4" cx="23.86" cy="13.68" r="10.71"/></g><circle cx="23.86" cy="13.68" r="7.14"/><path d="M0,16.61A39.74,39.74,0,0,1,12.07,6.94,30.56,30.56,0,0,1,27.26,3.41,29.17,29.17,0,0,1,35,4.84a40.41,40.41,0,0,1,7,3.31,51.11,51.11,0,0,1,11.7,10l-.15.13A50.47,50.47,0,0,0,41.52,9a39.35,39.35,0,0,0-6.93-2.93A27.5,27.5,0,0,0,27.24,5a26.7,26.7,0,0,0-7.32,1.1,14,14,0,0,0-1.78.54c-.58.21-1.18.38-1.75.62L14.65,8c-.57.25-1.13.52-1.7.78a66.12,66.12,0,0,0-12.81,8Z"/><path d="M.05,12.67A47.31,47.31,0,0,1,12.4,3.61,32,32,0,0,1,27.26,0a28.14,28.14,0,0,1,7.57,1.3,40.53,40.53,0,0,1,7,3.16,50.64,50.64,0,0,1,11.82,9.7l0,0A50.62,50.62,0,0,0,41.71,4.69a39.68,39.68,0,0,0-7-3.07A28,28,0,0,0,27.25.41a28.08,28.08,0,0,0-7.52,1,36.52,36.52,0,0,0-7.11,2.67A51.47,51.47,0,0,0,.09,12.7Z"/></g><ellipse class="cls-2" cx="28.64" cy="11.68" rx="2" ry="1.5"/></g></g></g></svg>