<svg xmlns="http://www.w3.org/2000/svg" viewBox="0 0 30 14"><defs><style>.cls-1{fill:#fff;}.cls-2{fill:#282120;}</style></defs><title>후</title><g id="레이어_2" data-name="레이어 2"><g id="레이어_1-2" data-name="레이어 1"><g id="후"><g id="후-2" data-name="후"><path class="cls-1" d="M30,7s-6.72,7-15,7S0,7,0,7,6.72,0,15,0,30,7,30,7Z"/><circle cx="15" cy="7" r="5.5"/><path d="M15,2a5,5,0,1,1-5,5,5,5,0,0,1,5-5m0-1a6,6,0,1,0,6,6,6,6,0,0,0-6-6Z"/><circle class="cls-2" cx="15" cy="7" r="4"/></g><path class="cls-1" d="M18.17,7.36C17.6,8,18,6.54,17.42,6s-2-.06-1.43-.67a1.5,1.5,0,0,1,2.18,2.06Z"/></g></g></g></svg>